<svg xmlns="http://www.w3.org/2000/svg" viewBox="0 0 1051 369" width="1051" height="369"><title>Artboard 1</title><defs><clipPath clipPathUnits="userSpaceOnUse" id="cp1"><path d="m-116-3639h1295v5902h-1295z"></path></clipPath><image width="2" height="327" id="img1"></image><image width="1484" height="748" id="img2"></image><image width="1484" height="748" id="img3"></image></defs><style>		tspan { white-space:pre } 		.s0 { fill: #efe7df;stroke: #000f1d;stroke-miterlimit:100 } 		.t1 { font-size: 22px;fill: #001c37;font-weight: 700;font-family: "Rubik-Bold", "Rubik" } 		.s2 { fill: none;stroke: #001c37;stroke-miterlimit:100;stroke-width: .7 } 	</style><g id="Artboard 1" clip-path="url(#cp1)"><g id="dobra 05"><g id="-etabela2"><path id="Rectangle 17" class="s0" d="m26.5 37.5h952c13.3 0 24 10.7 24 24v1.9c0 13.2-10.7 24-24 24h-952c-13.3 0-24-10.8-24-24v-1.9c0-13.3 10.7-24 24-24z"></path><path id="Rectangle 17 copy" class="s0" d="m26.5 97.5h952c13.3 0 24 10.8 24 24v1.9c0 13.2-10.7 24-24 24h-952c-13.3 0-24-10.8-24-24v-1.9c0-13.2 10.7-24 24-24z"></path><path id="Rectangle 17 copy 2" class="s0" d="m26.5 157.6h952c13.3 0 24 10.7 24 24v1.8c0 13.3-10.7 24-24 24h-952c-13.3 0-24-10.7-24-24v-1.8c0-13.3 10.7-24 24-24z"></path><path id="Rectangle 17 copy 3" class="s0" d="m26.5 217.6h952c13.3 0 24 10.7 24 24v1.9c0 13.2-10.7 24-24 24h-952c-13.3 0-24-10.8-24-24v-1.9c0-13.3 10.7-24 24-24z"></path><path id="Rectangle 17 copy 4" class="s0" d="m26.5 277.6h952c13.3 0 24 10.8 24 24v1.9c0 13.3-10.7 24-24 24h-952c-13.3 0-24-10.7-24-24v-1.9c0-13.2 10.7-24 24-24z"></path><use id="Vector Smart Object" href="#img1" x="584" y="1"></use><use id="Screenshot 2024-08-08 at 16.13.57" href="#img2" transform="matrix(.746,0,0,.6,56,-35)"></use><use id="Screenshot 2024-08-08 at 16.13.57" href="#img3" transform="matrix(.5,0,0,.5,345,1)"></use><text id="delivery_time" style="transform: matrix(1.077,0,0,1.077,29.281,233.666)"><tspan x="48.6" y="15.8" class="t1">delivery_time</tspan></text><text id="-2" style="transform: matrix(1.077,0,0,1.077,214.281,350.797)"><tspan x="59.4" y="15.8" class="t1">-2</tspan></text><path id="Line 1 copy 5" class="s2" d="m906 344h-1v-16h1z"></path><path id="Line 1 copy 4" class="s2" d="m752 344h-1v-16h1z"></path><path id="Line 1 copy 3" class="s2" d="m584 344h-1v-16h1z"></path><path id="Line 1 copy 2" class="s2" d="m437 344h-1v-16h1z"></path><path id="Line 1" class="s2" d="m296.6 343.9h-1.2v-15.8h1.2z"></path><text id="-1" style="transform: matrix(1.077,0,0,1.077,358.281,350.797)"><tspan x="61.1" y="15.8" class="t1">-1</tspan></text><text id="0" style="transform: matrix(1.077,0,0,1.077,506.281,350.797)"><tspan x="64.1" y="15.8" class="t1">0</tspan></text><text id="1" style="transform: matrix(1.077,0,0,1.077,675.281,350.797)"><tspan x="66.1" y="15.8" class="t1">1</tspan></text><text id="Low" style="transform: matrix(1.077,0,0,1.077,947.281,348.797)"><tspan x="49" y="15.8" class="t1">Low</tspan></text><text id="High" style="transform: matrix(1.077,0,0,1.077,947.281,.797)"><tspan x="45.8" y="15.8" class="t1">High</tspan></text><text id="2" style="transform: matrix(1.077,0,0,1.077,829.281,350.797)"><tspan x="64.4" y="15.8" class="t1">2</tspan></text><text id="0.5" style="transform: matrix(1.077,0,0,1.077,892.281,291.797)"><tspan x="53.8" y="15.8" class="t1">0.5</tspan></text><text id="customer_age" style="transform: matrix(1.077,0,0,1.077,29.281,292.692)"><tspan x="40.5" y="15.8" class="t1">customer_age</tspan></text><text id="customer_region" style="transform: matrix(1.077,0,0,1.077,29.281,172.719)"><tspan x="9.2" y="15.8" class="t1">customer_region</tspan></text><text id="day_of_week" style="transform: matrix(1.077,0,0,1.077,29.281,52.745)"><tspan x="50.7" y="15.8" class="t1">day_of_week</tspan></text><text id="item_price" style="transform: matrix(1.077,0,0,1.077,29.281,111.772)"><tspan x="81.2" y="15.8" class="t1">item_price</tspan></text></g></g></g></svg>