<svg xmlns="http://www.w3.org/2000/svg" viewBox="0 0 1051 369" width="1051" height="369"><defs><clipPath clipPathUnits="userSpaceOnUse" id="cp1"><path d="m-116-3639h1295v5902h-1295z"></path></clipPath><image width="2" height="327" id="img1"></image><image width="1484" height="748" id="img2"></image><image width="1484" height="748" id="img3"></image></defs><style>.a{fill:#efe7df;stroke:#000f1d;stroke-miterlimit:100}.b{fill:#001c37}.c{fill:none;stroke:#001c37;stroke-miterlimit:100;stroke-width:.7}</style><g clip-path="url(#cp1)"><path class="a" d="m26.5 37.5h952c13.3 0 24 10.7 24 24v1.9c0 13.2-10.7 24-24 24h-952c-13.3 0-24-10.8-24-24v-1.9c0-13.3 10.7-24 24-24z"></path><path class="a" d="m26.5 97.5h952c13.3 0 24 10.8 24 24v1.9c0 13.2-10.7 24-24 24h-952c-13.3 0-24-10.8-24-24v-1.9c0-13.2 10.7-24 24-24z"></path><path class="a" d="m26.5 157.6h952c13.3 0 24 10.7 24 24v1.8c0 13.3-10.7 24-24 24h-952c-13.3 0-24-10.7-24-24v-1.8c0-13.3 10.7-24 24-24z"></path><path class="a" d="m26.5 217.6h952c13.3 0 24 10.7 24 24v1.9c0 13.2-10.7 24-24 24h-952c-13.3 0-24-10.8-24-24v-1.9c0-13.3 10.7-24 24-24z"></path><path class="a" d="m26.5 277.6h952c13.3 0 24 10.8 24 24v1.9c0 13.3-10.7 24-24 24h-952c-13.3 0-24-10.7-24-24v-1.9c0-13.2 10.7-24 24-24z"></path><use href="#img1" x="584" y="1"></use><use href="#img2" transform="matrix(.746,0,0,.6,56,-35)"></use><use href="#img3" transform="matrix(.5,0,0,.5,345,1)"></use><path class="b" d="m87.6 251.2q-1.1 0-2-0.3-1-0.4-1.6-1.1-0.7-0.8-1-1.8-0.4-1.1-0.4-2.4-0.1-0.5-0.1-0.9 0-0.3 0.1-0.8 0-1.3 0.4-2.3 0.3-1.1 1-1.8 0.6-0.7 1.6-1.1 0.9-0.4 2-0.4 1.2 0 2.1 0.4 0.9 0.4 1.5 1v-5.2q0-0.2 0.1-0.4 0.2-0.2 0.5-0.2h2.9q0.3 0 0.4 0.2 0.2 0.2 0.2 0.4v15.9q0 0.2-0.2 0.4-0.1 0.2-0.4 0.2h-2.7q-0.3 0-0.4-0.2-0.2-0.2-0.2-0.4v-0.8q-0.6 0.7-1.5 1.2-0.9 0.4-2.3 0.4zm1.4-3.2q0.8 0 1.2-0.3 0.5-0.4 0.7-0.9 0.3-0.6 0.3-1.2 0-0.5 0-0.9 0-0.5 0-0.9 0-0.6-0.3-1.1-0.2-0.6-0.7-0.9-0.5-0.3-1.2-0.3-0.8 0-1.3 0.3-0.5 0.4-0.7 0.9-0.2 0.6-0.2 1.3-0.1 0.7 0 1.5 0 0.7 0.2 1.3 0.2 0.5 0.7 0.9 0.5 0.3 1.3 0.3zm14.9 3.2q-2.8 0-4.5-1.5-1.7-1.5-1.8-4.6 0-0.1 0-0.4 0-0.3 0-0.4 0.1-1.9 0.9-3.3 0.8-1.3 2.1-2 1.4-0.7 3.3-0.7 2.1 0 3.5 0.8 1.4 0.8 2.1 2.3 0.7 1.4 0.7 3.3v0.6q0 0.2-0.2 0.4-0.2 0.2-0.4 0.2h-7.7q0 0 0 0 0 0.1 0 0.1 0 0.7 0.2 1.3 0.3 0.6 0.7 0.9 0.4 0.3 1.1 0.3 0.5 0 0.8-0.1 0.3-0.2 0.5-0.4 0.3-0.2 0.4-0.3 0.2-0.3 0.3-0.3 0.2-0.1 0.4-0.1h3q0.3 0 0.4 0.1 0.2 0.2 0.1 0.4 0 0.4-0.4 1-0.3 0.6-1.1 1.2-0.7 0.5-1.8 0.9-1.1 0.3-2.6 0.3zm-2-7.8v0.1h4v-0.1q0-0.8-0.2-1.3-0.2-0.6-0.7-0.9-0.5-0.3-1.1-0.3-0.6 0-1.1 0.3-0.4 0.3-0.7 0.9-0.2 0.5-0.2 1.3zm14 7.6h-2.9q-0.2 0-0.4-0.2-0.2-0.2-0.2-0.4v-15.9q0-0.2 0.2-0.4 0.2-0.2 0.4-0.2h2.9q0.2 0 0.4 0.2 0.2 0.2 0.2 0.4v15.9q0 0.2-0.2 0.4-0.2 0.2-0.4 0.2zm6.8 0h-2.8q-0.3 0-0.4-0.2-0.2-0.2-0.2-0.4v-11.3q0-0.3 0.2-0.4 0.1-0.2 0.4-0.2h2.8q0.3 0 0.5 0.2 0.1 0.1 0.1 0.4v11.3q0 0.2-0.1 0.4-0.2 0.2-0.5 0.2zm0.1-14.3h-2.9q-0.3 0-0.5-0.2-0.1-0.1-0.1-0.4v-2.2q0-0.2 0.1-0.4 0.2-0.2 0.5-0.2h2.9q0.2 0 0.4 0.2 0.2 0.2 0.2 0.4v2.2q0 0.3-0.2 0.4-0.2 0.2-0.4 0.2zm10.4 14.3h-2.6q-0.3 0-0.5-0.2-0.2-0.2-0.3-0.4l-4.5-11.2q-0.1-0.1-0.1-0.2 0-0.2 0.1-0.3 0.2-0.2 0.5-0.2h2.7q0.3 0 0.5 0.2 0.1 0.1 0.2 0.3l2.7 7.4 2.7-7.4q0.1-0.2 0.2-0.3 0.2-0.2 0.5-0.2h2.7q0.3 0 0.4 0.2 0.2 0.1 0.2 0.3 0 0.1-0.1 0.2l-4.5 11.2q-0.1 0.2-0.3 0.4-0.2 0.2-0.5 0.2zm12.6 0.2q-2.9 0-4.6-1.5-1.6-1.5-1.7-4.6 0-0.1 0-0.4 0-0.3 0-0.4 0.1-1.9 0.8-3.3 0.8-1.3 2.2-2 1.4-0.7 3.2-0.7 2.1 0 3.5 0.8 1.4 0.8 2.1 2.3 0.7 1.4 0.7 3.3v0.6q0 0.2-0.2 0.4-0.1 0.2-0.4 0.2h-7.7q0 0 0 0 0 0.1 0 0.1 0 0.7 0.2 1.3 0.3 0.6 0.7 0.9 0.5 0.3 1.1 0.3 0.5 0 0.8-0.1 0.4-0.2 0.6-0.4 0.2-0.2 0.3-0.3 0.2-0.3 0.3-0.3 0.2-0.1 0.5-0.1h3q0.2 0 0.3 0.1 0.2 0.2 0.2 0.4 0 0.4-0.4 1-0.4 0.6-1.2 1.2-0.7 0.5-1.8 0.9-1.1 0.3-2.5 0.3zm-2.1-7.8v0.1h4.1v-0.1q0-0.8-0.3-1.3-0.2-0.6-0.7-0.9-0.4-0.3-1.1-0.3-0.6 0-1.1 0.3-0.4 0.3-0.7 0.9-0.2 0.5-0.2 1.3zm14.1 7.6h-2.9q-0.3 0-0.5-0.2-0.1-0.2-0.1-0.4v-11.3q0-0.2 0.1-0.4 0.2-0.2 0.5-0.2h2.7q0.3 0 0.5 0.2 0.1 0.2 0.1 0.4v1q0.7-0.8 1.6-1.2 0.9-0.4 2-0.4h1.1q0.2 0 0.4 0.2 0.2 0.1 0.2 0.4v2.5q0 0.2-0.2 0.4-0.2 0.2-0.4 0.2h-2.4q-1 0-1.5 0.5-0.5 0.6-0.5 1.5v6.2q0 0.2-0.2 0.4-0.2 0.2-0.5 0.2zm12.3 4.6h-2.6q-0.2 0-0.4-0.2-0.1-0.1-0.1-0.3 0-0.1 0-0.2 0-0.1 0.1-0.1l1.8-4.6-4.6-10.9q0-0.2 0-0.3 0-0.2 0.1-0.3 0.2-0.2 0.4-0.2h2.7q0.4 0 0.5 0.2 0.2 0.1 0.2 0.3l2.8 7 2.8-7q0.1-0.2 0.2-0.3 0.2-0.2 0.5-0.2h2.7q0.2 0 0.4 0.2 0.1 0.1 0.1 0.3 0 0.1 0 0.3l-6.8 15.8q-0.1 0.2-0.3 0.3-0.1 0.2-0.5 0.2zm24-2.9h-14.3q-0.3 0-0.4-0.1-0.2-0.2-0.2-0.5v-2.2q0-0.3 0.2-0.5 0.1-0.2 0.4-0.2h14.3q0.2 0 0.4 0.2 0.2 0.2 0.2 0.5v2.2q0 0.3-0.2 0.5-0.2 0.1-0.4 0.1zm11.7-1.7h-2.2q-1.5 0-2.7-0.5-1.1-0.5-1.7-1.5-0.6-1.1-0.6-2.7v-4.7h-1.9q-0.2 0-0.4-0.1-0.2-0.2-0.2-0.5v-1.9q0-0.3 0.2-0.4 0.2-0.2 0.4-0.2h1.9v-4q0-0.2 0.2-0.4 0.2-0.2 0.4-0.2h2.8q0.3 0 0.4 0.2 0.2 0.2 0.2 0.4v4h3q0.3 0 0.4 0.2 0.2 0.1 0.2 0.4v1.9q0 0.3-0.2 0.5-0.1 0.1-0.4 0.1h-3v4.3q0 0.8 0.3 1.3 0.3 0.5 1.1 0.5h1.8q0.3 0 0.5 0.2 0.1 0.1 0.1 0.4v2.1q0 0.2-0.1 0.4-0.2 0.2-0.5 0.2zm6.1 0h-2.9q-0.2 0-0.4-0.2-0.2-0.2-0.2-0.4v-11.3q0-0.3 0.2-0.4 0.2-0.2 0.4-0.2h2.9q0.2 0 0.4 0.2 0.2 0.1 0.2 0.4v11.3q0 0.2-0.2 0.4-0.2 0.2-0.4 0.2zm0-14.3h-2.9q-0.3 0-0.4-0.2-0.2-0.1-0.2-0.4v-2.2q0-0.2 0.2-0.4 0.1-0.2 0.4-0.2h2.9q0.2 0 0.4 0.2 0.2 0.2 0.2 0.4v2.2q0 0.3-0.2 0.4-0.2 0.2-0.4 0.2zm6.9 14.3h-2.9q-0.3 0-0.4-0.2-0.2-0.2-0.2-0.4v-11.3q0-0.3 0.2-0.4 0.1-0.2 0.4-0.2h2.6q0.3 0 0.4 0.2 0.2 0.1 0.2 0.4v0.8q0.5-0.6 1.4-1.1 0.8-0.5 2-0.5 2.8-0.1 3.8 2 0.6-0.9 1.6-1.5 1-0.5 2.2-0.5 1.3 0 2.3 0.5 1 0.6 1.6 1.8 0.6 1.1 0.6 3v6.8q0 0.2-0.2 0.4-0.1 0.2-0.4 0.2h-2.8q-0.3 0-0.5-0.2-0.1-0.2-0.1-0.4v-6.7q0-0.8-0.3-1.3-0.2-0.5-0.6-0.7-0.4-0.2-0.9-0.2-0.5 0-0.9 0.2-0.4 0.2-0.7 0.7-0.2 0.5-0.2 1.3v6.7q0 0.2-0.2 0.4-0.2 0.2-0.4 0.2h-2.8q-0.3 0-0.4-0.2-0.2-0.2-0.2-0.4v-6.7q0-0.8-0.3-1.3-0.2-0.5-0.7-0.7-0.4-0.2-0.8-0.2-0.5 0-0.9 0.2-0.4 0.2-0.7 0.7-0.2 0.5-0.2 1.3v6.7q0 0.2-0.2 0.4-0.2 0.2-0.4 0.2zm24.3 0.2q-2.9 0-4.5-1.5-1.7-1.5-1.8-4.6 0-0.1 0-0.4 0-0.3 0-0.4 0.1-1.9 0.8-3.3 0.8-1.3 2.2-2 1.4-0.7 3.3-0.7 2.1 0 3.4 0.8 1.4 0.8 2.1 2.3 0.7 1.4 0.7 3.3v0.6q0 0.2-0.1 0.4-0.2 0.2-0.5 0.2h-7.7q0 0 0 0 0 0.1 0 0.1 0.1 0.7 0.3 1.3 0.2 0.6 0.6 0.9 0.5 0.3 1.2 0.3 0.4 0 0.7-0.1 0.4-0.2 0.6-0.4 0.2-0.2 0.3-0.3 0.3-0.3 0.4-0.3 0.1-0.1 0.4-0.1h3q0.2 0 0.4 0.1 0.1 0.2 0.1 0.4 0 0.4-0.4 1-0.4 0.6-1.1 1.2-0.7 0.5-1.9 0.9-1.1 0.3-2.5 0.3zm-2.1-7.8v0.1h4.1v-0.1q0-0.8-0.2-1.3-0.3-0.6-0.7-0.9-0.5-0.3-1.1-0.3-0.7 0-1.1 0.3-0.5 0.3-0.7 0.9-0.3 0.5-0.3 1.3z"></path><path class="b" d="m287.7 362.5h-7.5q-0.3 0-0.5-0.1-0.1-0.2-0.1-0.5v-2.2q0-0.3 0.1-0.5 0.2-0.1 0.5-0.1h7.5q0.3 0 0.4 0.1 0.2 0.2 0.2 0.5v2.2q0 0.3-0.2 0.5-0.1 0.1-0.4 0.1zm15.3 5.5h-12.3q-0.3 0-0.5-0.2-0.2-0.2-0.2-0.4v-1.7q0-0.2 0.1-0.5 0.1-0.4 0.5-0.7l2.5-2.4q2-1.5 3.2-2.5 1.2-1 1.8-1.8 0.6-0.8 0.6-1.5 0-0.8-0.4-1.4-0.4-0.5-1.4-0.5-0.7 0-1.2 0.3-0.5 0.3-0.7 0.8-0.3 0.4-0.4 0.9 0 0.3-0.3 0.5-0.2 0.1-0.5 0.1h-3q-0.2 0-0.3-0.2-0.2-0.1-0.2-0.3 0-1.2 0.5-2.2 0.5-1 1.3-1.8 0.9-0.8 2.1-1.2 1.2-0.4 2.7-0.4 2 0 3.4 0.6 1.5 0.7 2.2 1.9 0.7 1.1 0.7 2.7 0 1.2-0.5 2.2-0.5 1-1.4 1.9-1 0.9-2.3 1.9l-2.2 2.3h6.2q0.2 0 0.4 0.1 0.2 0.2 0.2 0.5v2.4q0 0.2-0.2 0.4-0.2 0.2-0.4 0.2z"></path><path class="c" d="m906 344h-1v-16h1z"></path><path class="c" d="m752 344h-1v-16h1z"></path><path class="c" d="m584 344h-1v-16h1z"></path><path class="c" d="m437 344h-1v-16h1z"></path><path class="c" d="m296.6 343.9h-1.2v-15.8h1.2z"></path><path class="b" d="m433.6 362.5h-7.6q-0.2 0-0.4-0.1-0.2-0.2-0.2-0.5v-2.2q0-0.3 0.2-0.5 0.2-0.1 0.4-0.1h7.6q0.2 0 0.4 0.1 0.2 0.2 0.2 0.5v2.2q0 0.3-0.2 0.5-0.2 0.1-0.4 0.1zm11.1 5.5h-3.2q-0.2 0-0.4-0.2-0.2-0.2-0.2-0.4v-11.4l-3.3 2.5q-0.2 0.1-0.4 0.1-0.2 0-0.4-0.3l-1.4-1.8q-0.2-0.2-0.1-0.5 0-0.2 0.2-0.4l5.6-4.3q0.1-0.1 0.2-0.1 0.2 0 0.4 0h3q0.2 0 0.4 0.1 0.2 0.2 0.2 0.5v15.6q0 0.2-0.2 0.4-0.2 0.2-0.4 0.2z"></path><path class="b" d="m583.4 368.2q-1.7 0-3-0.4-1.2-0.5-2.1-1.4-0.8-0.9-1.3-2-0.4-1.2-0.5-2.5 0-0.7 0-1.5 0-0.8 0-1.7 0-0.8 0-1.5 0.1-1.3 0.5-2.4 0.5-1.2 1.3-2 0.9-0.9 2.2-1.4 1.2-0.5 2.9-0.5 1.7 0 3 0.5 1.2 0.5 2.1 1.4 0.8 0.8 1.3 2 0.4 1.1 0.5 2.4 0 0.7 0 1.5 0.1 0.9 0 1.7 0 0.8 0 1.5-0.1 1.3-0.5 2.5-0.5 1.1-1.3 2-0.8 0.9-2.1 1.4-1.2 0.4-3 0.4zm0-3.4q1.3 0 1.8-0.8 0.6-0.9 0.6-2.2 0.1-0.7 0.1-1.5 0-0.8 0-1.5 0-0.8-0.1-1.4 0-1.4-0.6-2.2-0.5-0.8-1.8-0.8-1.2 0-1.8 0.8-0.5 0.8-0.6 2.2 0 0.6 0 1.4 0 0.7 0 1.5 0 0.8 0 1.5 0.1 1.3 0.6 2.2 0.6 0.8 1.8 0.8z"></path><path class="b" d="m756.2 368h-3.1q-0.2 0-0.4-0.2-0.2-0.2-0.2-0.4v-11.4l-3.3 2.5q-0.2 0.1-0.4 0.1-0.2 0-0.4-0.3l-1.4-1.8q-0.2-0.2-0.1-0.5 0-0.2 0.2-0.4l5.6-4.3q0.1-0.1 0.2-0.1 0.2 0 0.3 0h3q0.3 0 0.5 0.1 0.1 0.2 0.1 0.5v15.6q0 0.2-0.1 0.4-0.2 0.2-0.5 0.2z"></path><path class="b" d="m1013.4 366h-11q-0.3 0-0.5-0.2-0.1-0.2-0.1-0.4v-15.6q0-0.3 0.1-0.5 0.2-0.1 0.5-0.1h3.1q0.3 0 0.5 0.1 0.2 0.2 0.2 0.5v12.6h7.2q0.3 0 0.5 0.2 0.1 0.1 0.1 0.4v2.4q0 0.2-0.1 0.4-0.2 0.2-0.5 0.2zm8.3 0.2q-2.1 0-3.5-0.6-1.3-0.7-2.1-1.9-0.7-1.2-0.8-2.9 0-0.4 0-1.1 0-0.6 0-1 0.1-1.7 0.9-2.9 0.7-1.2 2.1-1.9 1.4-0.6 3.4-0.6 1.9 0 3.3 0.6 1.4 0.7 2.2 1.9 0.7 1.2 0.8 2.9 0 0.4 0 1 0 0.7 0 1.1-0.1 1.7-0.8 2.9-0.7 1.2-2.1 1.9-1.4 0.6-3.4 0.6zm0-2.9q1 0 1.5-0.6 0.5-0.7 0.6-2 0-0.3 0-1 0-0.6 0-0.9-0.1-1.3-0.6-1.9-0.5-0.7-1.5-0.7-1.1 0-1.6 0.7-0.5 0.6-0.6 1.9 0 0.3 0 0.9 0 0.7 0 1 0.1 1.3 0.6 2 0.5 0.6 1.6 0.6zm14 2.7h-2.2q-0.3 0-0.5-0.2-0.2-0.2-0.2-0.4l-3.5-11.1q-0.1-0.2-0.1-0.3 0-0.2 0.2-0.3 0.2-0.2 0.4-0.2h2.5q0.3 0 0.5 0.2 0.1 0.1 0.2 0.3l2 6.9 2.2-6.9q0-0.1 0.2-0.3 0.2-0.2 0.5-0.2h1.6q0.3 0 0.5 0.2 0.2 0.2 0.3 0.3l2.1 6.9 2-6.9q0.1-0.2 0.2-0.3 0.2-0.2 0.6-0.2h2.4q0.2 0 0.4 0.2 0.2 0.1 0.2 0.3 0 0.1-0.1 0.3l-3.4 11.1q-0.1 0.2-0.3 0.4-0.2 0.2-0.5 0.2h-2.2q-0.3 0-0.5-0.2-0.2-0.2-0.3-0.4l-2.2-6.6-2.2 6.6q-0.1 0.2-0.3 0.4-0.2 0.2-0.5 0.2z"></path><path class="b" d="m1002 18h-3.1q-0.3 0-0.4-0.2-0.2-0.1-0.2-0.4v-15.6q0-0.3 0.2-0.5 0.1-0.1 0.4-0.1h3.1q0.3 0 0.4 0.1 0.2 0.2 0.2 0.5v5.8h5.9v-5.8q0-0.3 0.2-0.5 0.2-0.1 0.4-0.1h3.1q0.3 0 0.5 0.1 0.1 0.2 0.1 0.5v15.6q0 0.2-0.1 0.4-0.2 0.2-0.5 0.2h-3.1q-0.2 0-0.4-0.2-0.2-0.2-0.2-0.4v-6h-5.9v6q0 0.2-0.2 0.4-0.1 0.2-0.4 0.2zm17.4 0h-2.9q-0.2 0-0.4-0.2-0.2-0.2-0.2-0.4v-11.3q0-0.3 0.2-0.4 0.2-0.2 0.4-0.2h2.9q0.2 0 0.4 0.2 0.2 0.1 0.2 0.4v11.3q0 0.2-0.2 0.4-0.2 0.2-0.4 0.2zm0-14.3h-2.9q-0.2 0-0.4-0.2-0.2-0.1-0.2-0.4v-2.2q0-0.2 0.2-0.4 0.2-0.2 0.4-0.2h2.9q0.2 0 0.4 0.2 0.2 0.2 0.2 0.4v2.2q0 0.3-0.2 0.4-0.2 0.2-0.4 0.2zm9.5 19.6q-1.8 0-3-0.5-1.2-0.5-2-1.1-0.7-0.7-1-1.4-0.3-0.6-0.3-1 0-0.3 0.2-0.5 0.2-0.2 0.4-0.2h3.1q0.2 0 0.4 0.2 0.1 0.1 0.2 0.4 0.1 0.2 0.3 0.5 0.2 0.3 0.6 0.5 0.4 0.2 1 0.2 0.7 0 1.2-0.3 0.5-0.2 0.7-0.7 0.3-0.5 0.3-1.4v-1.6q-0.6 0.6-1.4 1-0.9 0.3-2.1 0.3-1.2 0-2.2-0.3-0.9-0.4-1.5-1.1-0.7-0.7-1-1.8-0.4-1-0.4-2.3-0.1-0.7 0-1.3 0-1.3 0.4-2.3 0.3-1.1 0.9-1.8 0.7-0.7 1.6-1.1 1-0.4 2.2-0.4 1.3 0 2.2 0.5 0.9 0.4 1.5 1.2v-0.9q0-0.2 0.2-0.4 0.2-0.2 0.4-0.2h2.8q0.3 0 0.4 0.2 0.2 0.2 0.2 0.4v11.6q0 1.8-0.7 3-0.7 1.3-2.2 1.9-1.4 0.7-3.4 0.7zm-0.1-8.7q0.7 0 1.2-0.3 0.5-0.4 0.7-0.9 0.3-0.5 0.3-1.1 0-0.3 0-0.8 0-0.4 0-0.7 0-0.6-0.3-1.1-0.2-0.6-0.7-0.9-0.5-0.3-1.2-0.3-0.8 0-1.3 0.3-0.5 0.4-0.7 0.9-0.2 0.6-0.2 1.3 0 0.5 0 1.1 0 0.7 0.2 1.3 0.2 0.5 0.7 0.9 0.5 0.3 1.3 0.3zm12.9 3.4h-3q-0.3 0-0.5-0.2-0.1-0.2-0.1-0.4v-15.9q0-0.2 0.1-0.4 0.2-0.2 0.5-0.2h3q0.3 0 0.5 0.2 0.1 0.2 0.1 0.4v5.4q0.7-0.8 1.6-1.2 1-0.4 2.2-0.4 1.4 0 2.5 0.6 1.1 0.6 1.7 1.8 0.7 1.2 0.7 3v6.7q0 0.2-0.2 0.4-0.2 0.2-0.4 0.2h-3.1q-0.3 0-0.5-0.2-0.1-0.2-0.1-0.4v-6.6q0-1.1-0.6-1.7-0.5-0.6-1.6-0.6-1 0-1.6 0.6-0.6 0.6-0.6 1.7v6.6q0 0.2-0.1 0.4-0.2 0.2-0.5 0.2z"></path><path class="b" d="m912.6 368h-12.4q-0.2 0-0.4-0.2-0.2-0.2-0.2-0.4v-1.7q0-0.2 0.1-0.5 0.1-0.4 0.5-0.7l2.5-2.4q1.9-1.5 3.2-2.5 1.2-1 1.8-1.8 0.6-0.8 0.6-1.5 0-0.8-0.4-1.4-0.4-0.5-1.5-0.5-0.7 0-1.1 0.3-0.5 0.3-0.7 0.8-0.3 0.4-0.4 0.9-0.1 0.3-0.3 0.5-0.2 0.1-0.5 0.1h-3q-0.2 0-0.4-0.2-0.1-0.1-0.1-0.3 0-1.2 0.5-2.2 0.5-1 1.3-1.8 0.9-0.8 2-1.2 1.2-0.4 2.7-0.4 2.1 0 3.5 0.6 1.4 0.7 2.2 1.9 0.7 1.1 0.7 2.7 0 1.2-0.5 2.2-0.5 1-1.5 1.9-0.9 0.9-2.2 1.9l-2.2 2.3h6.2q0.2 0 0.4 0.1 0.2 0.2 0.2 0.5v2.4q0 0.2-0.2 0.4-0.2 0.2-0.4 0.2z"></path><path class="b" d="m958.3 309.2q-1.7 0-3-0.4-1.2-0.5-2.1-1.4-0.8-0.9-1.2-2-0.5-1.2-0.5-2.5-0.1-0.7-0.1-1.5 0-0.8 0-1.7 0-0.8 0.1-1.5 0-1.3 0.5-2.4 0.4-1.2 1.3-2 0.8-0.9 2.1-1.4 1.2-0.5 2.9-0.5 1.7 0 3 0.5 1.3 0.5 2.1 1.4 0.8 0.8 1.3 2 0.4 1.1 0.5 2.4 0 0.7 0 1.5 0.1 0.9 0 1.7 0 0.8 0 1.5-0.1 1.3-0.5 2.5-0.4 1.1-1.3 2-0.8 0.9-2.1 1.4-1.2 0.4-3 0.4zm0-3.4q1.3 0 1.8-0.8 0.6-0.9 0.6-2.2 0.1-0.7 0.1-1.5 0-0.8 0-1.5 0-0.8-0.1-1.4 0-1.4-0.6-2.2-0.5-0.8-1.8-0.8-1.2 0-1.8 0.8-0.5 0.8-0.6 2.2 0 0.6 0 1.4 0 0.7 0 1.5 0 0.8 0 1.5 0.1 1.3 0.6 2.2 0.6 0.8 1.8 0.8zm13 3.2h-3.1q-0.2 0-0.4-0.2-0.2-0.2-0.2-0.4v-3.1q0-0.2 0.2-0.4 0.2-0.2 0.4-0.2h3.1q0.2 0 0.4 0.2 0.2 0.2 0.2 0.4v3.1q0 0.2-0.2 0.4-0.2 0.2-0.4 0.2zm9.6 0.3q-2.3 0-3.8-0.7-1.5-0.8-2.3-1.9-0.8-1.1-0.8-2.5 0-0.2 0.1-0.3 0.2-0.2 0.4-0.2h3.2q0.3 0 0.5 0.2 0.2 0.1 0.3 0.3 0.2 0.5 0.5 0.9 0.4 0.4 0.9 0.5 0.4 0.2 1 0.2 0.7 0 1.2-0.3 0.6-0.3 1-0.8 0.3-0.6 0.3-1.4 0-0.7-0.3-1.2-0.3-0.6-0.9-0.9-0.6-0.3-1.3-0.3-0.6 0-0.9 0.1-0.4 0.2-0.6 0.4-0.3 0.1-0.5 0.3-0.2 0.1-0.4 0.1h-3.2q-0.2 0-0.3-0.1-0.2-0.2-0.2-0.4l0.9-8.4q0-0.4 0.2-0.5 0.3-0.2 0.6-0.2h9.6q0.3 0 0.4 0.1 0.2 0.2 0.2 0.5v2.2q0 0.3-0.2 0.5-0.1 0.1-0.4 0.1h-7l-0.3 3.1q0.6-0.3 1.2-0.5 0.8-0.3 2-0.3 1.1 0 2.2 0.4 1 0.4 1.9 1.1 0.8 0.8 1.3 1.8 0.4 0.9 0.4 2.2 0 1.7-0.8 3-0.8 1.3-2.4 2.1-1.5 0.8-3.7 0.8z"></path><path class="b" d="m80 310.2q-1.8 0-3.1-0.6-1.4-0.7-2.2-1.9-0.8-1.2-0.9-3 0-0.3 0-0.9 0-0.6 0-1 0.1-1.8 0.9-3 0.8-1.2 2.2-1.9 1.3-0.6 3.1-0.6 1.7 0 2.9 0.4 1.2 0.5 1.9 1.2 0.7 0.7 1.1 1.4 0.4 0.8 0.4 1.3 0 0.3-0.2 0.4-0.2 0.2-0.4 0.2h-3.1q-0.2 0-0.4-0.1-0.1-0.1-0.2-0.4-0.3-0.7-0.8-1-0.4-0.3-1.1-0.3-1 0-1.5 0.6-0.5 0.6-0.5 1.9-0.1 1 0 1.7 0 1.3 0.5 1.9 0.5 0.6 1.5 0.6 0.7 0 1.2-0.3 0.4-0.3 0.7-1 0.1-0.3 0.2-0.4 0.2-0.1 0.4-0.1h3.1q0.2 0 0.4 0.2 0.2 0.1 0.2 0.4 0 0.4-0.2 0.9-0.3 0.6-0.7 1.2-0.5 0.6-1.2 1.1-0.7 0.5-1.8 0.8-1 0.3-2.4 0.3zm13.1 0q-1.4 0-2.5-0.6-1.1-0.6-1.7-1.8-0.6-1.2-0.6-3v-6.7q0-0.3 0.2-0.4 0.2-0.2 0.4-0.2h3q0.3 0 0.5 0.2 0.2 0.1 0.2 0.4v6.6q0 2.3 2.1 2.3 0.9 0 1.5-0.6 0.6-0.6 0.6-1.7v-6.6q0-0.3 0.2-0.4 0.2-0.2 0.4-0.2h3q0.3 0 0.5 0.2 0.1 0.1 0.1 0.4v11.3q0 0.2-0.1 0.4-0.2 0.2-0.5 0.2h-2.8q-0.2 0-0.4-0.2-0.2-0.2-0.2-0.4v-0.9q-0.6 0.9-1.6 1.3-1 0.4-2.3 0.4zm15.9 0q-1.6 0-2.7-0.3-1-0.4-1.7-0.9-0.7-0.5-1-1-0.4-0.5-0.4-1 0-0.2 0.2-0.4 0.2-0.2 0.4-0.2h2.7q0.1 0 0.1 0.1 0.1 0 0.2 0.1 0.3 0.1 0.6 0.4 0.3 0.2 0.7 0.4 0.4 0.2 1 0.2 0.7 0 1.1-0.2 0.5-0.3 0.5-0.8 0-0.4-0.2-0.7-0.2-0.2-0.9-0.5-0.7-0.2-2-0.4-1.2-0.3-2.2-0.8-0.9-0.5-1.4-1.2-0.5-0.8-0.5-1.9 0-0.9 0.6-1.8 0.6-0.9 1.8-1.5 1.2-0.5 3-0.5 1.4 0 2.4 0.3 1 0.3 1.7 0.8 0.7 0.5 1.1 1 0.4 0.6 0.4 1 0 0.2-0.2 0.4-0.1 0.2-0.3 0.2h-2.5q-0.1 0-0.2 0-0.1-0.1-0.2-0.1-0.3-0.2-0.6-0.4-0.3-0.2-0.7-0.4-0.3-0.2-0.9-0.2-0.7 0-1 0.3-0.4 0.3-0.4 0.7 0 0.3 0.2 0.6 0.2 0.3 0.9 0.5 0.6 0.2 1.9 0.5 1.7 0.2 2.7 0.8 1 0.6 1.4 1.4 0.4 0.8 0.4 1.6 0 1.2-0.7 2.1-0.7 0.9-2 1.4-1.3 0.4-3.3 0.4zm16.7-0.2h-2.2q-1.5 0-2.7-0.5-1.1-0.5-1.7-1.5-0.6-1.1-0.6-2.7v-4.7h-1.8q-0.3 0-0.5-0.1-0.2-0.2-0.2-0.5v-1.9q0-0.3 0.2-0.4 0.2-0.2 0.5-0.2h1.8v-4q0-0.2 0.2-0.4 0.2-0.2 0.4-0.2h2.8q0.3 0 0.4 0.2 0.2 0.2 0.2 0.4v4h3q0.3 0 0.5 0.2 0.1 0.1 0.1 0.4v1.9q0 0.3-0.1 0.5-0.2 0.1-0.5 0.1h-3v4.3q0 0.8 0.3 1.3 0.3 0.5 1.1 0.5h1.8q0.3 0 0.5 0.2 0.1 0.1 0.1 0.4v2.1q0 0.2-0.1 0.4-0.2 0.2-0.5 0.2zm8.5 0.2q-2 0-3.4-0.6-1.3-0.7-2.1-1.9-0.7-1.2-0.8-2.9 0-0.4 0-1.1 0-0.6 0-1 0.1-1.7 0.9-2.9 0.7-1.2 2.1-1.9 1.4-0.6 3.3-0.6 2 0 3.4 0.6 1.4 0.7 2.1 1.9 0.8 1.2 0.9 2.9 0 0.4 0 1 0 0.7 0 1.1-0.1 1.7-0.8 2.9-0.8 1.2-2.1 1.9-1.4 0.6-3.5 0.6zm0-2.9q1.1 0 1.6-0.6 0.5-0.7 0.6-2 0-0.3 0-1 0-0.6 0-0.9-0.1-1.3-0.6-1.9-0.5-0.7-1.6-0.7-1 0-1.5 0.7-0.5 0.6-0.6 1.9 0 0.3 0 0.9 0 0.7 0 1 0.1 1.3 0.6 2 0.5 0.6 1.5 0.6zm12.3 2.7h-2.9q-0.3 0-0.4-0.2-0.2-0.2-0.2-0.4v-11.3q0-0.3 0.2-0.4 0.1-0.2 0.4-0.2h2.6q0.3 0 0.5 0.2 0.1 0.1 0.1 0.4v0.8q0.5-0.6 1.4-1.1 0.8-0.5 2-0.5 2.8-0.1 3.8 2 0.6-0.9 1.6-1.5 1-0.5 2.3-0.5 1.2 0 2.2 0.5 1 0.6 1.6 1.8 0.6 1.1 0.6 3v6.8q0 0.2-0.2 0.4-0.1 0.2-0.4 0.2h-2.8q-0.2 0-0.4-0.2-0.2-0.2-0.2-0.4v-6.7q0-0.8-0.2-1.3-0.3-0.5-0.7-0.7-0.4-0.2-0.9-0.2-0.5 0-0.9 0.2-0.4 0.2-0.7 0.7-0.2 0.5-0.2 1.3v6.7q0 0.2-0.2 0.4-0.1 0.2-0.4 0.2h-2.8q-0.3 0-0.4-0.2-0.2-0.2-0.2-0.4v-6.7q0-0.8-0.3-1.3-0.2-0.5-0.6-0.7-0.4-0.2-0.9-0.2-0.5 0-0.9 0.2-0.4 0.2-0.7 0.7-0.2 0.5-0.2 1.3v6.7q0 0.2-0.2 0.4-0.2 0.2-0.4 0.2zm24.3 0.2q-2.8 0-4.5-1.5-1.7-1.5-1.8-4.6 0-0.1 0-0.4 0-0.3 0-0.4 0.1-1.9 0.9-3.3 0.8-1.3 2.1-2 1.4-0.7 3.3-0.7 2.1 0 3.5 0.8 1.3 0.8 2 2.3 0.7 1.4 0.7 3.3v0.6q0 0.2-0.1 0.4-0.2 0.2-0.5 0.2h-7.7q0 0 0 0 0 0.1 0 0.1 0.1 0.7 0.3 1.3 0.2 0.6 0.7 0.9 0.4 0.3 1.1 0.3 0.4 0 0.8-0.1 0.3-0.2 0.5-0.4 0.2-0.2 0.4-0.3 0.2-0.3 0.3-0.3 0.1-0.1 0.4-0.1h3q0.2 0 0.4 0.1 0.2 0.2 0.1 0.4 0 0.4-0.4 1-0.4 0.6-1.1 1.2-0.7 0.5-1.8 0.9-1.1 0.3-2.6 0.3zm-2.1-7.8v0.1h4.1v-0.1q0-0.8-0.2-1.3-0.2-0.6-0.7-0.9-0.5-0.3-1.1-0.3-0.7 0-1.1 0.3-0.5 0.3-0.7 0.9-0.3 0.5-0.3 1.3zm14.2 7.6h-3q-0.3 0-0.4-0.2-0.2-0.2-0.2-0.4v-11.3q0-0.2 0.2-0.4 0.1-0.2 0.4-0.2h2.8q0.2 0 0.4 0.2 0.2 0.2 0.2 0.4v1q0.6-0.8 1.5-1.2 0.9-0.4 2-0.4h1.1q0.3 0 0.4 0.2 0.2 0.1 0.2 0.4v2.5q0 0.2-0.2 0.4-0.1 0.2-0.4 0.2h-2.3q-1 0-1.6 0.5-0.5 0.6-0.5 1.5v6.2q0 0.2-0.2 0.4-0.2 0.2-0.4 0.2zm21.9 1.7h-14.3q-0.3 0-0.4-0.1-0.2-0.2-0.2-0.5v-2.2q0-0.3 0.2-0.5 0.1-0.2 0.4-0.2h14.3q0.2 0 0.4 0.2 0.2 0.2 0.2 0.5v2.2q0 0.3-0.2 0.5-0.2 0.1-0.4 0.1zm6.8-1.5q-1.3 0-2.3-0.4-1-0.5-1.6-1.4-0.6-0.8-0.6-1.9 0-1.7 1.4-2.7 1.4-1 3.7-1.3l3-0.5v-0.3q0-0.9-0.4-1.4-0.3-0.4-1.3-0.4-0.7 0-1.1 0.2-0.4 0.3-0.6 0.8-0.3 0.3-0.6 0.3h-2.7q-0.3 0-0.4-0.2-0.2-0.1-0.2-0.4 0-0.4 0.4-0.9 0.3-0.6 1-1.2 0.6-0.5 1.7-0.9 1.1-0.3 2.6-0.3 1.5 0 2.6 0.3 1.1 0.4 1.8 1 0.7 0.7 1 1.6 0.4 0.8 0.4 1.9v7.3q0 0.2-0.2 0.4-0.2 0.2-0.4 0.2h-2.8q-0.3 0-0.5-0.2-0.1-0.2-0.1-0.4v-0.8q-0.3 0.4-0.9 0.8-0.5 0.4-1.2 0.6-0.7 0.2-1.7 0.2zm1.2-2.7q0.7 0 1.2-0.3 0.6-0.3 0.9-0.9 0.3-0.7 0.3-1.6v-0.4l-2 0.4q-1.1 0.2-1.7 0.6-0.5 0.4-0.5 0.9 0 0.4 0.3 0.7 0.2 0.3 0.6 0.5 0.4 0.1 0.9 0.1zm15.4 7.8q-1.8 0-3.1-0.5-1.2-0.5-1.9-1.1-0.7-0.7-1-1.4-0.3-0.6-0.3-1-0.1-0.3 0.1-0.5 0.2-0.2 0.5-0.2h3q0.3 0 0.4 0.2 0.2 0.1 0.3 0.4 0.1 0.2 0.3 0.5 0.2 0.3 0.5 0.5 0.4 0.2 1.1 0.2 0.7 0 1.2-0.3 0.5-0.2 0.7-0.7 0.2-0.5 0.2-1.4v-1.6q-0.5 0.6-1.4 1-0.8 0.3-2.1 0.3-1.2 0-2.1-0.3-1-0.4-1.6-1.1-0.6-0.7-1-1.8-0.3-1-0.4-2.3 0-0.7 0-1.3 0.1-1.3 0.4-2.3 0.4-1.1 1-1.8 0.6-0.7 1.6-1.1 0.9-0.4 2.1-0.4 1.3 0 2.2 0.5 1 0.4 1.6 1.2v-0.9q0-0.2 0.2-0.4 0.1-0.2 0.4-0.2h2.7q0.3 0 0.5 0.2 0.2 0.2 0.2 0.4v11.6q0 1.8-0.8 3-0.7 1.3-2.1 1.9-1.4 0.7-3.4 0.7zm-0.2-8.7q0.8 0 1.3-0.3 0.5-0.4 0.7-0.9 0.2-0.5 0.2-1.1 0.1-0.3 0.1-0.8 0-0.4-0.1-0.7 0-0.6-0.2-1.1-0.2-0.6-0.7-0.9-0.5-0.3-1.3-0.3-0.8 0-1.2 0.3-0.5 0.4-0.7 0.9-0.2 0.6-0.3 1.3 0 0.5 0 1.1 0.1 0.7 0.3 1.3 0.2 0.5 0.7 0.9 0.4 0.3 1.2 0.3zm15.1 3.6q-2.9 0-4.5-1.5-1.7-1.5-1.8-4.6 0-0.1 0-0.4 0-0.3 0-0.4 0.1-1.9 0.8-3.3 0.8-1.3 2.2-2 1.4-0.7 3.3-0.7 2.1 0 3.4 0.8 1.4 0.8 2.1 2.3 0.7 1.4 0.7 3.3v0.6q0 0.2-0.1 0.4-0.2 0.2-0.5 0.2h-7.7q0 0 0 0 0 0.1 0 0.1 0.1 0.7 0.3 1.3 0.2 0.6 0.6 0.9 0.5 0.3 1.2 0.3 0.4 0 0.7-0.1 0.4-0.2 0.6-0.4 0.2-0.2 0.3-0.3 0.3-0.3 0.4-0.3 0.1-0.1 0.4-0.1h3q0.2 0 0.4 0.1 0.1 0.2 0.1 0.4 0 0.4-0.4 1-0.4 0.6-1.1 1.2-0.7 0.5-1.9 0.9-1.1 0.3-2.5 0.3zm-2.1-7.8v0.1h4.1v-0.1q0-0.8-0.2-1.3-0.3-0.6-0.7-0.9-0.5-0.3-1.1-0.3-0.7 0-1.1 0.3-0.5 0.3-0.7 0.9-0.3 0.5-0.3 1.3z"></path><path class="b" d="m46.4 190.2q-1.8 0-3.2-0.6-1.3-0.7-2.2-1.9-0.7-1.2-0.8-3 0-0.3 0-0.9 0-0.6 0-1 0.1-1.8 0.8-3 0.8-1.2 2.2-1.9 1.4-0.6 3.2-0.6 1.6 0 2.8 0.4 1.2 0.5 1.9 1.2 0.8 0.7 1.1 1.4 0.4 0.8 0.5 1.3 0 0.3-0.2 0.4-0.2 0.2-0.4 0.2h-3.1q-0.3 0-0.4-0.1-0.1-0.1-0.3-0.4-0.3-0.7-0.7-1-0.4-0.3-1.1-0.3-1 0-1.5 0.6-0.5 0.6-0.6 1.9 0 1 0 1.7 0.1 1.3 0.6 1.9 0.5 0.6 1.5 0.6 0.7 0 1.1-0.3 0.5-0.3 0.7-1 0.2-0.3 0.3-0.4 0.1-0.1 0.4-0.1h3.1q0.2 0 0.4 0.2 0.2 0.1 0.2 0.4-0.1 0.4-0.3 0.9-0.2 0.6-0.7 1.2-0.4 0.6-1.2 1.1-0.7 0.5-1.7 0.8-1 0.3-2.4 0.3zm13 0q-1.4 0-2.4-0.6-1.1-0.6-1.7-1.8-0.6-1.2-0.6-3v-6.7q0-0.3 0.2-0.4 0.1-0.2 0.4-0.2h3q0.3 0 0.4 0.2 0.2 0.1 0.2 0.4v6.6q0 2.3 2.1 2.3 1 0 1.6-0.6 0.6-0.6 0.6-1.7v-6.6q0-0.3 0.2-0.4 0.1-0.2 0.4-0.2h3q0.3 0 0.4 0.2 0.2 0.1 0.2 0.4v11.3q0 0.2-0.2 0.4-0.1 0.2-0.4 0.2h-2.8q-0.2 0-0.4-0.2-0.2-0.2-0.2-0.4v-0.9q-0.6 0.9-1.6 1.3-1 0.4-2.4 0.4zm16 0q-1.6 0-2.7-0.3-1.1-0.4-1.8-0.9-0.7-0.5-1-1-0.3-0.5-0.3-1-0.1-0.2 0.1-0.4 0.2-0.2 0.4-0.2h2.8q0 0 0.1 0.1 0.1 0 0.1 0.1 0.3 0.1 0.7 0.4 0.3 0.2 0.7 0.4 0.4 0.2 1 0.2 0.6 0 1.1-0.2 0.4-0.3 0.4-0.8 0-0.4-0.2-0.7-0.2-0.2-0.9-0.5-0.6-0.2-1.9-0.4-1.3-0.3-2.2-0.8-1-0.5-1.5-1.2-0.5-0.8-0.5-1.9 0-0.9 0.7-1.8 0.6-0.9 1.8-1.5 1.2-0.5 3-0.5 1.3 0 2.4 0.3 1 0.3 1.7 0.8 0.7 0.5 1.1 1 0.3 0.6 0.3 1 0.1 0.2-0.1 0.4-0.2 0.2-0.4 0.2h-2.5q-0.1 0-0.2 0-0.1-0.1-0.1-0.1-0.3-0.2-0.6-0.4-0.3-0.2-0.7-0.4-0.4-0.2-1-0.2-0.6 0-1 0.3-0.3 0.3-0.3 0.7 0 0.3 0.2 0.6 0.2 0.3 0.8 0.5 0.7 0.2 2 0.5 1.7 0.2 2.6 0.8 1 0.6 1.4 1.4 0.5 0.8 0.5 1.6 0 1.2-0.7 2.1-0.7 0.9-2.1 1.4-1.3 0.4-3.2 0.4zm16.7-0.2h-2.2q-1.6 0-2.7-0.5-1.1-0.5-1.7-1.5-0.6-1.1-0.6-2.7v-4.7h-1.9q-0.3 0-0.4-0.1-0.2-0.2-0.2-0.5v-1.9q0-0.3 0.2-0.4 0.1-0.2 0.4-0.2h1.9v-4q0-0.2 0.2-0.4 0.1-0.2 0.4-0.2h2.8q0.2 0 0.4 0.2 0.2 0.2 0.2 0.4v4h3q0.2 0 0.4 0.2 0.2 0.1 0.2 0.4v1.9q0 0.3-0.2 0.5-0.2 0.1-0.4 0.1h-3v4.3q0 0.8 0.3 1.3 0.3 0.5 1 0.5h1.9q0.3 0 0.4 0.2 0.2 0.1 0.2 0.4v2.1q0 0.2-0.2 0.4-0.1 0.2-0.4 0.2zm8.5 0.2q-2 0-3.4-0.6-1.4-0.7-2.1-1.9-0.8-1.2-0.8-2.9-0.1-0.4-0.1-1.1 0-0.6 0.1-1 0-1.7 0.8-2.9 0.8-1.2 2.2-1.9 1.4-0.6 3.3-0.6 2 0 3.3 0.6 1.4 0.7 2.2 1.9 0.8 1.2 0.9 2.9 0 0.4 0 1 0 0.7 0 1.1-0.1 1.7-0.9 2.9-0.7 1.2-2.1 1.9-1.4 0.6-3.4 0.6zm0-2.9q1.1 0 1.6-0.6 0.5-0.7 0.5-2 0.1-0.3 0.1-1 0-0.6-0.1-0.9 0-1.3-0.5-1.9-0.5-0.7-1.6-0.7-1 0-1.6 0.7-0.5 0.6-0.5 1.9 0 0.3 0 0.9 0 0.7 0 1 0 1.3 0.5 2 0.6 0.6 1.6 0.6zm12.2 2.7h-2.8q-0.3 0-0.5-0.2-0.1-0.2-0.1-0.4v-11.3q0-0.3 0.1-0.4 0.2-0.2 0.5-0.2h2.6q0.3 0 0.4 0.2 0.2 0.1 0.2 0.4v0.8q0.5-0.6 1.3-1.1 0.9-0.5 2.1-0.5 2.8-0.1 3.8 2 0.6-0.9 1.6-1.5 1-0.5 2.2-0.5 1.3 0 2.3 0.5 1 0.6 1.6 1.8 0.6 1.1 0.6 3v6.8q0 0.2-0.2 0.4-0.2 0.2-0.4 0.2h-2.8q-0.3 0-0.5-0.2-0.1-0.2-0.1-0.4v-6.7q0-0.8-0.3-1.3-0.2-0.5-0.6-0.7-0.4-0.2-1-0.2-0.4 0-0.8 0.2-0.4 0.2-0.7 0.7-0.3 0.5-0.3 1.3v6.7q0 0.2-0.1 0.4-0.2 0.2-0.5 0.2h-2.7q-0.3 0-0.5-0.2-0.1-0.2-0.1-0.4v-6.7q0-0.8-0.3-1.3-0.3-0.5-0.7-0.7-0.4-0.2-0.9-0.2-0.4 0-0.9 0.2-0.4 0.2-0.6 0.7-0.3 0.5-0.3 1.3v6.7q0 0.2-0.2 0.4-0.1 0.2-0.4 0.2zm24.3 0.2q-2.8 0-4.5-1.5-1.7-1.5-1.7-4.6 0-0.1 0-0.4 0-0.3 0-0.4 0-1.9 0.8-3.3 0.8-1.3 2.2-2 1.4-0.7 3.2-0.7 2.1 0 3.5 0.8 1.4 0.8 2.1 2.3 0.7 1.4 0.7 3.3v0.6q0 0.2-0.2 0.4-0.1 0.2-0.4 0.2h-7.7q0 0 0 0 0 0.1 0 0.1 0 0.7 0.2 1.3 0.3 0.6 0.7 0.9 0.5 0.3 1.1 0.3 0.5 0 0.8-0.1 0.4-0.2 0.6-0.4 0.2-0.2 0.3-0.3 0.2-0.3 0.3-0.3 0.2-0.1 0.5-0.1h3q0.2 0 0.3 0.1 0.2 0.2 0.2 0.4 0 0.4-0.4 1-0.4 0.6-1.2 1.2-0.7 0.5-1.8 0.9-1.1 0.3-2.6 0.3zm-2-7.8v0.1h4.1v-0.1q0-0.8-0.3-1.3-0.2-0.6-0.7-0.9-0.4-0.3-1.1-0.3-0.6 0-1.1 0.3-0.4 0.3-0.7 0.9-0.2 0.5-0.2 1.3zm14.1 7.6h-2.9q-0.3 0-0.5-0.2-0.1-0.2-0.1-0.4v-11.3q0-0.2 0.1-0.4 0.2-0.2 0.5-0.2h2.7q0.3 0 0.5 0.2 0.1 0.2 0.1 0.4v1q0.7-0.8 1.6-1.2 0.9-0.4 2-0.4h1.1q0.2 0 0.4 0.2 0.2 0.1 0.2 0.4v2.5q0 0.2-0.2 0.4-0.2 0.2-0.4 0.2h-2.4q-1 0-1.5 0.5-0.5 0.6-0.5 1.5v6.2q0 0.2-0.2 0.4-0.2 0.2-0.5 0.2zm21.9 1.7h-14.2q-0.3 0-0.5-0.1-0.1-0.2-0.1-0.5v-2.2q0-0.3 0.1-0.5 0.2-0.2 0.5-0.2h14.2q0.3 0 0.4 0.2 0.2 0.2 0.2 0.5v2.2q0 0.3-0.2 0.5-0.1 0.1-0.4 0.1zm6.7-1.7h-2.9q-0.3 0-0.5-0.2-0.1-0.2-0.1-0.4v-11.3q0-0.2 0.1-0.4 0.2-0.2 0.5-0.2h2.7q0.3 0 0.4 0.2 0.2 0.2 0.2 0.4v1q0.7-0.8 1.6-1.2 0.9-0.4 2-0.4h1.1q0.2 0 0.4 0.2 0.2 0.1 0.2 0.4v2.5q0 0.2-0.2 0.4-0.2 0.2-0.4 0.2h-2.4q-1 0-1.5 0.5-0.5 0.6-0.5 1.5v6.2q0 0.2-0.2 0.4-0.2 0.2-0.5 0.2zm13 0.2q-2.8 0-4.5-1.5-1.7-1.5-1.7-4.6 0-0.1 0-0.4 0-0.3 0-0.4 0-1.9 0.8-3.3 0.8-1.3 2.2-2 1.4-0.7 3.2-0.7 2.1 0 3.5 0.8 1.4 0.8 2.1 2.3 0.7 1.4 0.7 3.3v0.6q0 0.2-0.2 0.4-0.2 0.2-0.4 0.2h-7.7q0 0 0 0 0 0.1 0 0.1 0 0.7 0.2 1.3 0.3 0.6 0.7 0.9 0.5 0.3 1.1 0.3 0.5 0 0.8-0.1 0.3-0.2 0.6-0.4 0.2-0.2 0.3-0.3 0.2-0.3 0.3-0.3 0.2-0.1 0.5-0.1h2.9q0.3 0 0.4 0.1 0.2 0.2 0.2 0.4-0.1 0.4-0.4 1-0.4 0.6-1.2 1.2-0.7 0.5-1.8 0.9-1.1 0.3-2.6 0.3zm-2-7.8v0.1h4.1v-0.1q0-0.8-0.3-1.3-0.2-0.6-0.7-0.9-0.4-0.3-1.1-0.3-0.6 0-1.1 0.3-0.4 0.3-0.7 0.9-0.2 0.5-0.2 1.3zm16.7 12.9q-1.9 0-3.1-0.5-1.2-0.5-1.9-1.1-0.7-0.7-1-1.4-0.4-0.6-0.4-1 0-0.3 0.2-0.5 0.2-0.2 0.4-0.2h3.1q0.2 0 0.4 0.2 0.1 0.1 0.2 0.4 0.2 0.2 0.4 0.5 0.2 0.3 0.5 0.5 0.4 0.2 1 0.2 0.8 0 1.2-0.3 0.5-0.2 0.8-0.7 0.2-0.5 0.2-1.4v-1.6q-0.5 0.6-1.4 1-0.9 0.3-2.1 0.3-1.2 0-2.2-0.3-0.9-0.4-1.5-1.1-0.6-0.7-1-1.8-0.3-1-0.4-2.3 0-0.7 0-1.3 0.1-1.3 0.4-2.3 0.3-1.1 1-1.8 0.6-0.7 1.5-1.1 1-0.4 2.2-0.4 1.3 0 2.2 0.5 1 0.4 1.6 1.2v-0.9q0-0.2 0.1-0.4 0.2-0.2 0.5-0.2h2.7q0.3 0 0.4 0.2 0.2 0.2 0.2 0.4v11.6q0 1.8-0.7 3-0.7 1.3-2.1 1.9-1.4 0.7-3.4 0.7zm-0.2-8.7q0.8 0 1.2-0.3 0.5-0.4 0.7-0.9 0.3-0.5 0.3-1.1 0-0.3 0-0.8 0-0.4 0-0.7 0-0.6-0.3-1.1-0.2-0.6-0.7-0.9-0.4-0.3-1.2-0.3-0.8 0-1.3 0.3-0.4 0.4-0.6 0.9-0.2 0.6-0.3 1.3 0 0.5 0 1.1 0.1 0.7 0.3 1.3 0.2 0.5 0.6 0.9 0.5 0.3 1.3 0.3zm12.7 3.4h-2.8q-0.3 0-0.5-0.2-0.1-0.2-0.1-0.4v-11.3q0-0.3 0.1-0.4 0.2-0.2 0.5-0.2h2.8q0.3 0 0.4 0.2 0.2 0.1 0.2 0.4v11.3q0 0.2-0.2 0.4-0.1 0.2-0.4 0.2zm0-14.3h-2.8q-0.3 0-0.5-0.2-0.1-0.1-0.1-0.4v-2.2q0-0.2 0.1-0.4 0.2-0.2 0.5-0.2h2.8q0.3 0 0.4 0.2 0.2 0.2 0.2 0.4v2.2q0 0.3-0.2 0.4-0.1 0.2-0.4 0.2zm9.4 14.5q-2.1 0-3.5-0.6-1.3-0.7-2.1-1.9-0.7-1.2-0.8-2.9 0-0.4 0-1.1 0-0.6 0-1 0.1-1.7 0.9-2.9 0.8-1.2 2.1-1.9 1.4-0.6 3.4-0.6 1.9 0 3.3 0.6 1.4 0.7 2.2 1.9 0.7 1.2 0.8 2.9 0.1 0.4 0.1 1 0 0.7-0.1 1.1-0.1 1.7-0.8 2.9-0.7 1.2-2.1 1.9-1.4 0.6-3.4 0.6zm0-2.9q1 0 1.5-0.6 0.5-0.7 0.6-2 0-0.3 0-1 0-0.6 0-0.9-0.1-1.3-0.6-1.9-0.5-0.7-1.5-0.7-1.1 0-1.6 0.7-0.5 0.6-0.6 1.9 0 0.3 0 0.9 0 0.7 0 1 0.1 1.3 0.6 2 0.5 0.6 1.6 0.6zm12.3 2.7h-3q-0.2 0-0.4-0.2-0.2-0.2-0.2-0.4v-11.3q0-0.3 0.2-0.4 0.2-0.2 0.4-0.2h2.8q0.3 0 0.4 0.2 0.2 0.1 0.2 0.4v0.9q0.6-0.7 1.6-1.2 1-0.5 2.4-0.5 1.4 0 2.5 0.6 1 0.6 1.6 1.8 0.7 1.2 0.7 3v6.7q0 0.2-0.2 0.4-0.2 0.2-0.4 0.2h-3.1q-0.2 0-0.4-0.2-0.2-0.2-0.2-0.4v-6.6q0-1.1-0.5-1.7-0.5-0.6-1.6-0.6-1 0-1.6 0.6-0.6 0.6-0.6 1.7v6.6q0 0.2-0.2 0.4-0.1 0.2-0.4 0.2z"></path><path class="b" d="m90 70.2q-1.2 0-2.1-0.3-0.9-0.4-1.6-1.1-0.6-0.8-1-1.8-0.3-1.1-0.4-2.4 0-0.5 0-0.9 0-0.3 0-0.8 0.1-1.3 0.4-2.3 0.4-1.1 1-1.8 0.7-0.7 1.6-1.1 0.9-0.4 2.1-0.4 1.2 0 2.1 0.4 0.8 0.4 1.4 1v-5.2q0-0.2 0.2-0.4 0.2-0.2 0.4-0.2h3q0.2 0 0.4 0.2 0.2 0.2 0.2 0.4v15.9q0 0.2-0.2 0.4-0.2 0.2-0.4 0.2h-2.8q-0.2 0-0.4-0.2-0.2-0.2-0.2-0.4v-0.8q-0.5 0.7-1.4 1.2-1 0.4-2.3 0.4zm1.3-3.2q0.8 0 1.3-0.3 0.5-0.4 0.7-0.9 0.2-0.6 0.2-1.2 0.1-0.5 0.1-0.9 0-0.5-0.1-0.9 0-0.6-0.2-1.1-0.3-0.6-0.8-0.9-0.4-0.3-1.2-0.3-0.8 0-1.3 0.3-0.4 0.4-0.6 0.9-0.2 0.6-0.3 1.3 0 0.7 0 1.5 0.1 0.7 0.3 1.3 0.2 0.5 0.6 0.9 0.5 0.3 1.3 0.3zm13 3.2q-1.3 0-2.4-0.4-1-0.5-1.6-1.4-0.6-0.8-0.6-1.9 0-1.7 1.4-2.7 1.4-1 3.7-1.3l3-0.5v-0.3q0-0.9-0.4-1.4-0.3-0.4-1.3-0.4-0.6 0-1.1 0.2-0.4 0.3-0.6 0.8-0.2 0.3-0.6 0.3h-2.7q-0.3 0-0.4-0.2-0.2-0.1-0.2-0.4 0-0.4 0.4-0.9 0.3-0.6 1-1.2 0.6-0.5 1.7-0.9 1.1-0.3 2.6-0.3 1.5 0 2.6 0.3 1.1 0.4 1.8 1 0.7 0.7 1 1.6 0.4 0.8 0.4 1.9v7.3q0 0.2-0.2 0.4-0.2 0.2-0.4 0.2h-2.8q-0.3 0-0.5-0.2-0.1-0.2-0.1-0.4v-0.8q-0.3 0.4-0.9 0.8-0.5 0.4-1.2 0.6-0.7 0.2-1.6 0.2zm1.1-2.7q0.7 0 1.2-0.3 0.6-0.3 0.9-0.9 0.4-0.7 0.4-1.6v-0.4l-2.1 0.4q-1.1 0.2-1.6 0.6-0.6 0.4-0.6 0.9 0 0.4 0.3 0.7 0.2 0.3 0.6 0.5 0.4 0.1 0.9 0.1zm13.8 7.1h-2.6q-0.2 0-0.4-0.2-0.1-0.1-0.1-0.3 0-0.1 0-0.2 0-0.1 0.1-0.1l1.8-4.6-4.6-10.9q0-0.2 0-0.3 0-0.2 0.2-0.3 0.1-0.2 0.3-0.2h2.8q0.3 0 0.4 0.2 0.2 0.1 0.2 0.3l2.8 7 2.8-7q0.1-0.2 0.2-0.3 0.2-0.2 0.5-0.2h2.7q0.2 0 0.4 0.2 0.1 0.1 0.1 0.3 0 0.1 0 0.3l-6.8 15.8q-0.1 0.2-0.3 0.3-0.1 0.2-0.5 0.2zm24-2.9h-14.3q-0.3 0-0.4-0.1-0.2-0.2-0.2-0.5v-2.2q0-0.3 0.2-0.5 0.1-0.2 0.4-0.2h14.3q0.2 0 0.4 0.2 0.2 0.2 0.2 0.5v2.2q0 0.3-0.2 0.5-0.2 0.1-0.4 0.1zm9-1.5q-2 0-3.4-0.6-1.4-0.7-2.1-1.9-0.7-1.2-0.8-2.9-0.1-0.4-0.1-1.1 0-0.6 0.1-1 0.1-1.7 0.8-2.9 0.8-1.2 2.2-1.9 1.4-0.6 3.3-0.6 2 0 3.4 0.6 1.4 0.7 2.1 1.9 0.8 1.2 0.9 2.9 0 0.4 0 1 0 0.7 0 1.1-0.1 1.7-0.9 2.9-0.7 1.2-2.1 1.9-1.3 0.6-3.4 0.6zm0-2.9q1.1 0 1.6-0.6 0.5-0.7 0.6-2 0-0.3 0-1 0-0.6 0-0.9-0.1-1.3-0.6-1.9-0.5-0.7-1.6-0.7-1 0-1.5 0.7-0.6 0.6-0.6 1.9 0 0.3 0 0.9 0 0.7 0 1 0 1.3 0.6 2 0.5 0.6 1.5 0.6zm13.5 2.7h-2.8q-0.3 0-0.4-0.2-0.2-0.2-0.2-0.4v-8.8h-1.8q-0.3 0-0.5-0.1-0.1-0.2-0.1-0.5v-1.9q0-0.3 0.1-0.4 0.2-0.2 0.5-0.2h1.8v-0.8q0-1.6 0.6-2.6 0.7-1 1.8-1.4 1.2-0.5 2.8-0.5h1.9q0.3 0 0.5 0.2 0.1 0.1 0.1 0.4v2q0 0.2-0.1 0.4-0.2 0.2-0.5 0.2h-1.7q-0.8 0-1.1 0.3-0.3 0.4-0.3 1.1v0.7h2.9q0.2 0 0.4 0.2 0.2 0.1 0.2 0.4v1.9q0 0.3-0.2 0.5-0.2 0.1-0.4 0.1h-2.9v8.8q0 0.2-0.2 0.4-0.2 0.2-0.4 0.2zm20.4 1.7h-14.3q-0.3 0-0.4-0.1-0.2-0.2-0.2-0.5v-2.2q0-0.3 0.2-0.5 0.1-0.2 0.4-0.2h14.3q0.2 0 0.4 0.2 0.2 0.2 0.2 0.5v2.2q0 0.3-0.2 0.5-0.2 0.1-0.4 0.1zm8.7-1.7h-2.1q-0.4 0-0.5-0.2-0.2-0.2-0.3-0.4l-3.5-11.1q0-0.2 0-0.3 0-0.2 0.2-0.3 0.1-0.2 0.3-0.2h2.5q0.3 0 0.5 0.2 0.2 0.1 0.2 0.3l2.1 6.9 2.1-6.9q0.1-0.1 0.2-0.3 0.2-0.2 0.6-0.2h1.5q0.4 0 0.6 0.2 0.2 0.2 0.2 0.3l2.2 6.9 2-6.9q0-0.2 0.2-0.3 0.2-0.2 0.5-0.2h2.5q0.2 0 0.4 0.2 0.1 0.1 0.1 0.3 0 0.1 0 0.3l-3.5 11.1q-0.1 0.2-0.3 0.4-0.1 0.2-0.5 0.2h-2.1q-0.4 0-0.6-0.2-0.2-0.2-0.2-0.4l-2.2-6.6-2.3 6.6q0 0.2-0.2 0.4-0.2 0.2-0.6 0.2zm19.9 0.2q-2.8 0-4.5-1.5-1.7-1.5-1.7-4.6 0-0.1 0-0.4 0-0.3 0-0.4 0-1.9 0.8-3.3 0.8-1.3 2.2-2 1.4-0.7 3.2-0.7 2.1 0 3.5 0.8 1.4 0.8 2.1 2.3 0.7 1.4 0.7 3.3v0.6q0 0.2-0.2 0.4-0.1 0.2-0.4 0.2h-7.7q0 0 0 0 0 0.1 0 0.1 0 0.7 0.2 1.3 0.3 0.6 0.7 0.9 0.5 0.3 1.1 0.3 0.5 0 0.8-0.1 0.3-0.2 0.6-0.4 0.2-0.2 0.3-0.3 0.2-0.3 0.3-0.3 0.2-0.1 0.5-0.1h3q0.2 0 0.3 0.1 0.2 0.2 0.2 0.4 0 0.4-0.4 1-0.4 0.6-1.2 1.2-0.7 0.5-1.8 0.9-1.1 0.3-2.6 0.3zm-2-7.8v0.1h4.1v-0.1q0-0.8-0.3-1.3-0.2-0.6-0.7-0.9-0.4-0.3-1.1-0.3-0.6 0-1.1 0.3-0.4 0.3-0.7 0.9-0.2 0.5-0.2 1.3zm16.3 7.8q-2.8 0-4.5-1.5-1.7-1.5-1.8-4.6 0-0.1 0-0.4 0-0.3 0-0.4 0.1-1.9 0.9-3.3 0.8-1.3 2.2-2 1.3-0.7 3.2-0.7 2.1 0 3.5 0.8 1.4 0.8 2.1 2.3 0.7 1.4 0.7 3.3v0.6q0 0.2-0.2 0.4-0.2 0.2-0.4 0.2h-7.7q0 0 0 0 0 0.1 0 0.1 0 0.7 0.2 1.3 0.3 0.6 0.7 0.9 0.4 0.3 1.1 0.3 0.5 0 0.8-0.1 0.3-0.2 0.5-0.4 0.3-0.2 0.4-0.3 0.2-0.3 0.3-0.3 0.2-0.1 0.4-0.1h3q0.3 0 0.4 0.1 0.2 0.2 0.2 0.4-0.1 0.4-0.5 1-0.3 0.6-1.1 1.2-0.7 0.5-1.8 0.9-1.1 0.3-2.6 0.3zm-2-7.8v0.1h4v-0.1q0-0.8-0.2-1.3-0.2-0.6-0.7-0.9-0.5-0.3-1.1-0.3-0.6 0-1.1 0.3-0.4 0.3-0.7 0.9-0.2 0.5-0.2 1.3zm13.9 7.6h-2.8q-0.2 0-0.4-0.2-0.2-0.2-0.2-0.4v-15.9q0-0.2 0.2-0.4 0.2-0.2 0.4-0.2h2.8q0.3 0 0.4 0.2 0.2 0.2 0.2 0.4v8.1l3.4-3.7q0.1-0.2 0.3-0.3 0.1-0.1 0.4-0.1h3.3q0.2 0 0.3 0.2 0.2 0.1 0.2 0.3 0 0.1-0.1 0.2 0 0.2-0.1 0.2l-4.3 4.7 4.9 6q0.2 0.2 0.2 0.3 0 0.3-0.2 0.5-0.1 0.1-0.4 0.1h-3.2q-0.4 0-0.6-0.1-0.1-0.2-0.3-0.3l-3.8-4.6v4.4q0 0.2-0.2 0.4-0.1 0.2-0.4 0.2z"></path><path class="b" d="m121.6 129h-2.9q-0.2 0-0.4-0.2-0.2-0.2-0.2-0.4v-11.3q0-0.3 0.2-0.4 0.2-0.2 0.4-0.2h2.9q0.2 0 0.4 0.2 0.2 0.1 0.2 0.4v11.3q0 0.2-0.2 0.4-0.2 0.2-0.4 0.2zm0-14.3h-2.9q-0.3 0-0.4-0.2-0.2-0.1-0.2-0.4v-2.2q0-0.2 0.2-0.4 0.1-0.2 0.4-0.2h2.9q0.2 0 0.4 0.2 0.2 0.2 0.2 0.4v2.2q0 0.3-0.2 0.4-0.2 0.2-0.4 0.2zm12 14.3h-2.2q-1.6 0-2.7-0.5-1.1-0.5-1.7-1.5-0.6-1.1-0.6-2.7v-4.7h-1.9q-0.2 0-0.4-0.1-0.2-0.2-0.2-0.5v-1.9q0-0.3 0.2-0.4 0.2-0.2 0.4-0.2h1.9v-4q0-0.2 0.2-0.4 0.2-0.2 0.4-0.2h2.8q0.3 0 0.4 0.2 0.2 0.2 0.2 0.4v4h3q0.3 0 0.4 0.2 0.2 0.1 0.2 0.4v1.9q0 0.3-0.2 0.5-0.1 0.1-0.4 0.1h-3v4.3q0 0.8 0.3 1.3 0.3 0.5 1.1 0.5h1.8q0.3 0 0.4 0.2 0.2 0.1 0.2 0.4v2.1q0 0.2-0.2 0.4-0.1 0.2-0.4 0.2zm8.4 0.2q-2.9 0-4.5-1.5-1.7-1.5-1.8-4.6 0-0.1 0-0.4 0-0.3 0-0.4 0.1-1.9 0.8-3.3 0.8-1.3 2.2-2 1.4-0.7 3.3-0.7 2.1 0 3.4 0.8 1.4 0.8 2.1 2.3 0.7 1.4 0.7 3.3v0.6q0 0.2-0.1 0.4-0.2 0.2-0.5 0.2h-7.7q0 0 0 0 0 0.1 0 0.1 0.1 0.7 0.3 1.3 0.2 0.6 0.6 0.9 0.5 0.3 1.2 0.3 0.4 0 0.7-0.1 0.4-0.2 0.6-0.4 0.2-0.2 0.3-0.3 0.3-0.3 0.4-0.3 0.1-0.1 0.4-0.1h3q0.2 0 0.4 0.1 0.1 0.2 0.1 0.4 0 0.4-0.4 1-0.4 0.6-1.1 1.2-0.7 0.5-1.8 0.9-1.2 0.3-2.6 0.3zm-2.1-7.8v0.1h4.1v-0.1q0-0.8-0.2-1.3-0.3-0.6-0.7-0.9-0.5-0.3-1.1-0.3-0.7 0-1.1 0.3-0.5 0.3-0.7 0.9-0.3 0.5-0.3 1.3zm14 7.6h-2.8q-0.3 0-0.4-0.2-0.2-0.2-0.2-0.4v-11.3q0-0.3 0.2-0.4 0.1-0.2 0.4-0.2h2.6q0.3 0 0.4 0.2 0.2 0.1 0.2 0.4v0.8q0.5-0.6 1.4-1.1 0.8-0.5 2-0.5 2.8-0.1 3.8 2 0.6-0.9 1.6-1.5 1-0.5 2.2-0.5 1.3 0 2.3 0.5 1 0.6 1.6 1.8 0.6 1.1 0.6 3v6.8q0 0.2-0.2 0.4-0.2 0.2-0.4 0.2h-2.8q-0.3 0-0.5-0.2-0.1-0.2-0.1-0.4v-6.7q0-0.8-0.3-1.3-0.2-0.5-0.6-0.7-0.4-0.2-1-0.2-0.4 0-0.8 0.2-0.4 0.2-0.7 0.7-0.2 0.5-0.2 1.3v6.7q0 0.2-0.2 0.4-0.2 0.2-0.4 0.2h-2.8q-0.3 0-0.5-0.2-0.1-0.2-0.1-0.4v-6.7q0-0.8-0.3-1.3-0.3-0.5-0.7-0.7-0.4-0.2-0.9-0.2-0.4 0-0.8 0.2-0.4 0.2-0.7 0.7-0.3 0.5-0.3 1.3v6.7q0 0.2-0.1 0.4-0.2 0.2-0.5 0.2zm33.2 1.7h-14.3q-0.3 0-0.4-0.1-0.2-0.2-0.2-0.5v-2.2q0-0.3 0.2-0.5 0.1-0.2 0.4-0.2h14.3q0.2 0 0.4 0.2 0.2 0.2 0.2 0.5v2.2q0 0.3-0.2 0.5-0.2 0.1-0.4 0.1zm6.6 2.9h-2.9q-0.3 0-0.4-0.2-0.2-0.2-0.2-0.4v-15.9q0-0.3 0.2-0.4 0.1-0.2 0.4-0.2h2.7q0.2 0 0.4 0.2 0.2 0.1 0.2 0.4v0.9q0.6-0.8 1.5-1.2 0.9-0.5 2.2-0.5 1.2 0 2.1 0.3 1 0.4 1.6 1.1 0.7 0.7 1 1.8 0.4 1 0.4 2.4 0.1 0.4 0.1 0.8 0 0.5-0.1 0.9 0 1.3-0.4 2.4-0.3 1-1 1.7-0.6 0.7-1.6 1.2-0.9 0.3-2.1 0.3-1.2 0-2-0.4-0.9-0.4-1.5-1.2v5.4q0 0.2-0.1 0.4-0.2 0.2-0.5 0.2zm2.8-7.6q0.8 0 1.3-0.3 0.5-0.4 0.7-0.9 0.2-0.6 0.2-1.3 0.1-0.8 0-1.5 0-0.7-0.2-1.3-0.2-0.5-0.7-0.9-0.5-0.3-1.3-0.3-0.7 0-1.2 0.3-0.5 0.4-0.7 0.9-0.2 0.6-0.3 1.2 0 0.5 0 0.9 0 0.5 0 0.9 0 0.6 0.3 1.2 0.2 0.5 0.7 0.8 0.5 0.3 1.2 0.3zm12.4 3h-3q-0.2 0-0.4-0.2-0.2-0.2-0.2-0.4v-11.3q0-0.2 0.2-0.4 0.2-0.2 0.4-0.2h2.8q0.3 0 0.4 0.2 0.2 0.2 0.2 0.4v1q0.7-0.8 1.6-1.2 0.9-0.4 2-0.4h1.1q0.2 0 0.4 0.2 0.2 0.1 0.2 0.4v2.5q0 0.2-0.2 0.4-0.2 0.2-0.4 0.2h-2.4q-1 0-1.5 0.5-0.5 0.6-0.5 1.5v6.2q0 0.2-0.2 0.4-0.2 0.2-0.5 0.2zm10.8 0h-2.8q-0.3 0-0.5-0.2-0.1-0.2-0.1-0.4v-11.3q0-0.3 0.1-0.4 0.2-0.2 0.5-0.2h2.8q0.3 0 0.4 0.2 0.2 0.1 0.2 0.4v11.3q0 0.2-0.2 0.4-0.1 0.2-0.4 0.2zm0-14.3h-2.9q-0.2 0-0.4-0.2-0.2-0.1-0.2-0.4v-2.2q0-0.2 0.2-0.4 0.2-0.2 0.4-0.2h2.9q0.3 0 0.4 0.2 0.2 0.2 0.2 0.4v2.2q0 0.3-0.2 0.4-0.1 0.2-0.4 0.2zm9.2 14.5q-1.8 0-3.2-0.6-1.3-0.7-2.2-1.9-0.8-1.2-0.8-3 0-0.3 0-0.9 0-0.6 0-1 0-1.8 0.8-3 0.8-1.2 2.2-1.9 1.4-0.6 3.2-0.6 1.6 0 2.8 0.4 1.2 0.5 1.9 1.2 0.8 0.7 1.1 1.4 0.4 0.8 0.4 1.3 0.1 0.3-0.1 0.4-0.2 0.2-0.5 0.2h-3q-0.3 0-0.4-0.1-0.2-0.1-0.3-0.4-0.3-0.7-0.7-1-0.5-0.3-1.2-0.3-0.9 0-1.4 0.6-0.5 0.6-0.6 1.9 0 1 0 1.7 0.1 1.3 0.6 1.9 0.5 0.6 1.4 0.6 0.8 0 1.2-0.3 0.5-0.3 0.7-1 0.1-0.3 0.3-0.4 0.1-0.1 0.4-0.1h3q0.3 0 0.5 0.2 0.2 0.1 0.1 0.4 0 0.4-0.2 0.9-0.2 0.6-0.7 1.2-0.4 0.6-1.2 1.1-0.7 0.5-1.7 0.8-1.1 0.3-2.4 0.3zm14.2 0q-2.9 0-4.5-1.5-1.7-1.5-1.8-4.6 0-0.1 0-0.4 0-0.3 0-0.4 0.1-1.9 0.8-3.3 0.8-1.3 2.2-2 1.4-0.7 3.3-0.7 2.1 0 3.4 0.8 1.4 0.8 2.1 2.3 0.7 1.4 0.7 3.3v0.6q0 0.2-0.1 0.4-0.2 0.2-0.5 0.2h-7.7q0 0 0 0 0 0.1 0 0.1 0.1 0.7 0.3 1.3 0.2 0.6 0.6 0.9 0.5 0.3 1.2 0.3 0.4 0 0.7-0.1 0.4-0.2 0.6-0.4 0.2-0.2 0.3-0.3 0.3-0.3 0.4-0.3 0.1-0.1 0.4-0.1h3q0.2 0 0.4 0.1 0.1 0.2 0.1 0.4 0 0.4-0.4 1-0.4 0.6-1.1 1.2-0.7 0.5-1.9 0.9-1.1 0.3-2.5 0.3zm-2.1-7.8v0.1h4.1v-0.1q0-0.8-0.2-1.3-0.3-0.6-0.7-0.9-0.5-0.3-1.1-0.3-0.7 0-1.1 0.3-0.5 0.3-0.7 0.9-0.3 0.5-0.3 1.3z"></path></g></svg>