<svg xmlns="http://www.w3.org/2000/svg" viewBox="0 0 1054 455" width="1054" height="455"><title>Artboard 1</title><defs><clipPath clipPathUnits="userSpaceOnUse" id="cp1"><path d="m-116-2760h1295v5902h-1295z"></path></clipPath><image width="2" height="290" id="img1"></image><image width="2" height="290" id="img2"></image><image width="2" height="290" id="img3"></image><image width="2" height="290" id="img4"></image><image width="153" height="57" id="img5"></image><image width="153" height="57" id="img6"></image><image width="153" height="57" id="img7"></image><image width="82" height="57" id="img8"></image><image width="82" height="58" id="img9"></image></defs><style>		tspan { white-space:pre } 		.s0 { fill: #daeef9;stroke: #000f1d;stroke-miterlimit:100 } 		.s1 { fill: #ffdacd;stroke: #000f1d;stroke-miterlimit:100 } 		.t2 { font-size: 22px;fill: #001c37;font-weight: 700;font-family: "Rubik-Bold", "Rubik" } 		.t3 { font-size: 22px;fill: #2ca7de;font-weight: 700;font-style: italic;font-family: "Rubik-BoldItalic", "Rubik" } 		.t4 { font-size: 22px;fill: #2ca7de;font-weight: 700;font-family: "Rubik-Bold", "Rubik" } 		.t5 { font-size: 22px;fill: #f05822;font-weight: 700;font-style: italic;font-family: "Rubik-BoldItalic", "Rubik" } 		.t6 { font-size: 22px;fill: #f05822;font-weight: 700;font-family: "Rubik-Bold", "Rubik" } 		.t7 { font-size: 22px;fill: #ffffff;font-weight: 700;font-family: "Rubik-Bold", "Rubik" } 		.s8 { fill: none;stroke: #001c37;stroke-miterlimit:100;stroke-width: .7 } 	</style><g id="Artboard 1" clip-path="url(#cp1)"><g id="dobra 04"><g id="-etabela 01"><path id="Rectangle 17" class="s0" d="m26.5 78.7h1002c13.3 0 24 10.7 24 24v1.9c0 13.2-10.7 24-24 24h-1002c-13.3 0-24-10.8-24-24v-1.9c0-13.3 10.7-24 24-24z"></path><path id="Rectangle 17 copy" class="s0" d="m26.5 138.7h1002c13.3 0 24 10.8 24 24v1.9c0 13.2-10.7 24-24 24h-1002c-13.3 0-24-10.8-24-24v-1.9c0-13.2 10.7-24 24-24z"></path><path id="Rectangle 17 copy 2" class="s0" d="m26.5 198.7h1002c13.3 0 24 10.8 24 24v1.9c0 13.3-10.7 24-24 24h-1002c-13.3 0-24-10.7-24-24v-1.9c0-13.2 10.7-24 24-24z"></path><path id="Rectangle 17 copy 3" class="s0" d="m26.5 258.8h1002c13.3 0 24 10.7 24 24v1.8c0 13.3-10.7 24-24 24h-1002c-13.3 0-24-10.7-24-24v-1.8c0-13.3 10.7-24 24-24z"></path><path id="Rectangle 17 copy 4" class="s1" d="m26.5 318.8h1002c13.3 0 24 10.7 24 24v1.8c0 13.3-10.7 24-24 24h-1002c-13.3 0-24-10.7-24-24v-1.8c0-13.3 10.7-24 24-24z"></path><use id="Vector Smart Object" href="#img1" x="339" y="79"></use><use id="Vector Smart Object copy 5" href="#img2" x="713" y="-66"></use><use id="Vector Smart Object copy 7" href="#img3" x="866" y="79"></use><use id="Vector Smart Object copy 6" href="#img4" x="561" y="-126"></use><text id="delivery_time" style="transform: matrix(1.077,0,0,1.077,29.281,93.691)"><tspan x="48.6" y="15.8" class="t2">delivery_time</tspan></text><text id="-1.5" style="transform: matrix(1.077,0,0,1.077,255.281,391.802)"><tspan x="50.7" y="15.8" class="t2">-1.5</tspan></text><text id="f(x) = -1.326" style="transform: matrix(1.077,0,0,1.077,260.281,1.656)"><tspan x="5.2" y="15.8" class="t3">f(x)</tspan><tspan y="15.8" class="t4"> = -1.326</tspan></text><text id="E[f(x)] = 0.173" style="transform: matrix(1.077,0,0,1.077,770.837,433.818)"><tspan x="14.5" y="15.8" class="t5">E[f(x)]</tspan><tspan y="15.8" class="t6"> = 0.173</tspan></text><text id="-1.0" style="transform: matrix(1.077,0,0,1.077,409.281,391.802)"><tspan x="50.4" y="15.8" class="t2">-1.0</tspan></text><text id="-0.5" style="transform: matrix(1.077,0,0,1.077,563.281,391.802)"><tspan x="48.4" y="15.8" class="t2">-0.5</tspan></text><text id="-0.0" style="transform: matrix(1.077,0,0,1.077,716.281,391.802)"><tspan x="48.1" y="15.8" class="t2">-0.0</tspan></text><text id="0.5" style="transform: matrix(1.077,0,0,1.077,870.281,391.802)"><tspan x="53.8" y="15.8" class="t2">0.5</tspan></text><text id="customer_age" style="transform: matrix(1.077,0,0,1.077,29.281,153.713)"><tspan x="40.5" y="15.8" class="t2">customer_age</tspan></text><text id="customer_region" style="transform: matrix(1.077,0,0,1.077,29.281,213.736)"><tspan x="9.2" y="15.8" class="t2">customer_region</tspan></text><text id="day_of_week" style="transform: matrix(1.077,0,0,1.077,29.281,273.758)"><tspan x="50.7" y="15.8" class="t2">day_of_week</tspan></text><text id="item_price" style="transform: matrix(1.077,0,0,1.077,29.281,333.781)"><tspan x="81.2" y="15.8" class="t2">item_price</tspan></text><use id="Vector Smart Object" href="#img5" transform="matrix(1,0,0,1,405,73)"></use><text id="-0.54" style="transform: matrix(1.077,0,0,1.077,409.281,93.691)"><tspan x="40.8" y="15.8" class="t7">-0.54</tspan></text><use id="Vector Smart Object copy 2" href="#img6" transform="matrix(1,0,0,1,562,134)"></use><text id="-0.5" style="transform: matrix(1.077,0,0,1.077,561.281,152.713)"><tspan x="48.4" y="15.8" class="t7">-0.5</tspan></text><use id="Vector Smart Object copy 4" href="#img7" transform="matrix(1,0,0,1,715,195)"></use><text id="-0.4" style="transform: matrix(1.077,0,0,1.077,714.281,213.736)"><tspan x="48.1" y="15.8" class="t7">-0.4</tspan></text><use id="Vector Smart Object copy 8" href="#img8" transform="matrix(1,0,0,1,867,255)"></use><use id="Vector Smart Object copy 9" href="#img9" transform="matrix(1,0,0,1,866,314)"></use><text id="-0.31" style="transform: matrix(1.077,0,0,1.077,833.281,273.758)"><tspan x="42.9" y="15.8" class="t7">-0.31</tspan></text><text id="+0.26" style="transform: matrix(1.077,0,0,1.077,826.281,333.781)"><tspan x="39.7" y="15.8" class="t7">+0.26</tspan></text><path id="Line 1" class="s8" d="m340 77.1h-1v-48h1z"></path><path id="Line 1 copy" class="s8" d="m867 420.2h-1v-48h1z"></path></g></g></g></svg>